# 3ds Max Wavefront OBJ Exporter v0.97b - (c)2007 guruware
# Datei erstellt: 14.04.2015 11:39:45

mtllib brick1.mtl

#
# object Box003
#

v  -0.2300 0.8000 0.2300
v  -0.2300 0.8000 0.0000
v  0.0000 0.8000 0.0000
v  0.0000 0.8000 0.2300
v  0.2300 0.8000 0.0000
v  0.2300 0.8000 0.2300
v  -0.2300 0.8000 -0.2300
v  0.0000 0.8000 -0.2300
v  0.2300 0.8000 -0.2300
v  0.0000 1.1300 0.2300
v  0.1626 1.1300 0.1626
v  0.2300 1.1300 0.0000
v  0.1626 1.1300 -0.1626
v  0.0000 1.1300 -0.2300
v  -0.1626 1.1300 -0.1626
v  -0.2300 1.1300 0.0000
v  -0.1626 1.1300 0.1626
v  -0.3900 0.0000 0.3900
v  0.0000 0.0000 0.3900
v  0.0000 0.9600 0.3900
v  -0.3900 0.9600 0.3900
v  0.3900 0.0000 0.3900
v  0.3900 0.9600 0.3900
v  0.3900 0.0000 0.0000
v  0.3900 0.9600 0.0000
v  0.3900 0.0000 -0.3900
v  0.3900 0.9600 -0.3900
v  0.0000 0.0000 -0.3900
v  0.0000 0.9600 -0.3900
v  -0.3900 0.0000 -0.3900
v  -0.3900 0.9600 -0.3900
v  -0.3900 0.0000 0.0000
v  -0.3900 0.9600 0.0000
v  0.0000 0.9600 0.2300
v  -0.1626 0.9600 0.1626
v  0.1626 0.9600 0.1626
v  0.2300 0.9600 0.0000
v  0.1626 0.9600 -0.1626
v  0.0000 0.9600 -0.2300
v  -0.1626 0.9600 -0.1626
v  -0.2300 0.9600 0.0000
v  -0.2300 0.0000 0.0000
v  -0.2300 0.0000 0.2300
v  -0.2300 0.0000 -0.2300
v  0.0000 0.0000 -0.2300
v  0.2300 0.0000 -0.2300
v  0.2300 0.0000 0.0000
v  0.2300 0.0000 0.2300
v  0.0000 0.0000 0.2300
# 49 vertices

vn 0.0000 -1.0000 -0.0000
vn 0.0000 1.0000 -0.0000
vn 0.0000 0.0000 1.0000
vn 1.0000 0.0000 -0.0000
vn 0.0000 0.0000 -1.0000
vn -1.0000 0.0000 -0.0000
vn -0.3827 0.0000 0.9239
vn 0.3827 0.0000 0.9239
vn 0.9239 0.0000 0.3827
vn 0.9239 0.0000 -0.3827
vn 0.3827 0.0000 -0.9239
vn -0.3827 0.0000 -0.9239
vn -0.9239 0.0000 -0.3827
vn -0.9239 0.0000 0.3827
# 14 vertex normals

vt 1.0000 0.0000 0.0000
vt 1.0000 0.5000 0.0000
vt 0.5000 0.5000 0.0000
vt 0.5000 0.0000 0.0000
vt 0.0000 0.5000 0.0000
vt 0.0000 0.0000 0.0000
vt 1.0000 1.0000 0.0000
vt 0.5000 1.0000 0.0000
vt 0.0000 1.0000 0.0000
# 9 texture coords

g Box003
usemtl wire_148177027
s 2
f 1/1/1 2/2/1 3/3/1 
f 3/3/1 4/4/1 1/1/1 
f 4/4/1 3/3/1 5/5/1 
f 5/5/1 6/6/1 4/4/1 
f 2/2/1 7/7/1 8/8/1 
f 8/8/1 3/3/1 2/2/1 
f 3/3/1 8/8/1 9/9/1 
f 9/9/1 5/5/1 3/3/1 
s 4
f 10/4/2 11/1/2 12/2/2 
f 12/2/2 13/7/2 14/8/2 
f 14/8/2 15/9/2 16/5/2 
f 12/2/2 14/8/2 16/5/2 
f 10/4/2 12/2/2 16/5/2 
f 10/4/2 16/5/2 17/6/2 
s 8
f 18/6/3 19/4/3 20/8/3 
f 20/8/3 21/9/3 18/6/3 
f 19/4/3 22/1/3 23/7/3 
f 23/7/3 20/8/3 19/4/3 
s 16
f 22/6/4 24/4/4 25/8/4 
f 25/8/4 23/9/4 22/6/4 
f 24/4/4 26/1/4 27/7/4 
f 27/7/4 25/8/4 24/4/4 
s 32
f 26/6/5 28/4/5 29/8/5 
f 29/8/5 27/9/5 26/6/5 
f 28/4/5 30/1/5 31/7/5 
f 31/7/5 29/8/5 28/4/5 
s 64
f 30/6/6 32/4/6 33/8/6 
f 33/8/6 31/9/6 30/6/6 
f 32/4/6 18/1/6 21/7/6 
f 21/7/6 33/8/6 32/4/6 
s off
f 21/6/2 20/4/2 34/4/2 
f 34/4/2 35/6/2 21/6/2 
f 20/4/2 23/1/2 36/1/2 
f 36/1/2 34/4/2 20/4/2 
f 23/1/2 25/2/2 37/2/2 
f 37/2/2 36/1/2 23/1/2 
f 25/2/2 27/7/2 38/7/2 
f 38/7/2 37/2/2 25/2/2 
f 27/7/2 29/8/2 39/8/2 
f 39/8/2 38/7/2 27/7/2 
f 29/8/2 31/9/2 40/9/2 
f 40/9/2 39/8/2 29/8/2 
f 31/9/2 33/5/2 41/5/2 
f 41/5/2 40/9/2 31/9/2 
f 33/5/2 21/6/2 35/6/2 
f 35/6/2 41/5/2 33/5/2 
f 35/6/7 34/4/7 10/4/7 
f 10/4/7 17/6/7 35/6/7 
f 34/4/8 36/1/8 11/1/8 
f 11/1/8 10/4/8 34/4/8 
f 36/1/9 37/2/9 12/2/9 
f 12/2/9 11/1/9 36/1/9 
f 37/2/10 38/7/10 13/7/10 
f 13/7/10 12/2/10 37/2/10 
f 38/7/11 39/8/11 14/8/11 
f 14/8/11 13/7/11 38/7/11 
f 39/8/12 40/9/12 15/9/12 
f 15/9/12 14/8/12 39/8/12 
f 40/9/13 41/5/13 16/5/13 
f 16/5/13 15/9/13 40/9/13 
f 41/5/14 35/6/14 17/6/14 
f 17/6/14 16/5/14 41/5/14 
f 18/1/1 32/2/1 42/2/1 
f 42/2/1 43/1/1 18/1/1 
f 32/2/1 30/7/1 44/7/1 
f 44/7/1 42/2/1 32/2/1 
f 30/7/1 28/8/1 45/8/1 
f 45/8/1 44/7/1 30/7/1 
f 28/8/1 26/9/1 46/9/1 
f 46/9/1 45/8/1 28/8/1 
f 26/9/1 24/5/1 47/5/1 
f 47/5/1 46/9/1 26/9/1 
f 24/5/1 22/6/1 48/6/1 
f 48/6/1 47/5/1 24/5/1 
f 22/6/1 19/4/1 49/4/1 
f 49/4/1 48/6/1 22/6/1 
f 19/4/1 18/1/1 43/1/1 
f 43/1/1 49/4/1 19/4/1 
f 43/1/4 42/2/4 2/2/4 
f 2/2/4 1/1/4 43/1/4 
f 42/2/4 44/7/4 7/7/4 
f 7/7/4 2/2/4 42/2/4 
f 44/7/3 45/8/3 8/8/3 
f 8/8/3 7/7/3 44/7/3 
f 45/8/3 46/9/3 9/9/3 
f 9/9/3 8/8/3 45/8/3 
f 46/9/6 47/5/6 5/5/6 
f 5/5/6 9/9/6 46/9/6 
f 47/5/6 48/6/6 6/6/6 
f 6/6/6 5/5/6 47/5/6 
f 48/6/5 49/4/5 4/4/5 
f 4/4/5 6/6/5 48/6/5 
f 49/4/5 43/1/5 1/1/5 
f 1/1/5 4/4/5 49/4/5 
# 94 faces

